PathFileType	4	(X/Y/Z)	RBDS013\RBDS013runT35.trc
DataRate	CameraRate	NumFrames	NumMarkers	Units	OrigDataRate	OrigDataStartFrame	OrigNumFrames
150.000000	150.000000	6	33	mm	150.000000	3375	4500
Frame#	Time	L.ASIS			L.Heel.Bottom			L.Heel.Lateral			L.Heel.Top			L.Iliac.Crest			L.MT1			L.MT5			L.PSIS			L.Shank.Bottom.Lateral			L.Shank.Bottom.Medial			L.Shank.Top.Lateral			L.Shank.Top.Medial			L.Thigh.Bottom.Lateral			L.Thigh.Bottom.Medial			L.Thigh.Top.Lateral			L.Thigh.Top.Medial			R.ASIS			R.ASY			R.Heel.Bottom			R.Heel.Lateral			R.Heel.Top			R.Iliac.Crest			R.MT1			R.MT5			R.PSIS			R.Shank.Bottom.Lateral			R.Shank.Bottom.Medial			R.Shank.Top.Lateral			R.Shank.Top.Medial			R.Thigh.Bottom.Lateral			R.Thigh.Bottom.Medial			R.Thigh.Top.Lateral			R.Thigh.Top.Medial			
		X1	Y1	Z1	X2	Y2	Z2	X3	Y3	Z3	X4	Y4	Z4	X5	Y5	Z5	X6	Y6	Z6	X7	Y7	Z7	X8	Y8	Z8	X9	Y9	Z9	X10	Y10	Z10	X11	Y11	Z11	X12	Y12	Z12	X13	Y13	Z13	X14	Y14	Z14	X15	Y15	Z15	X16	Y16	Z16	X17	Y17	Z17	X18	Y18	Z18	X19	Y19	Z19	X20	Y20	Z20	X21	Y21	Z21	X22	Y22	Z22	X23	Y23	Z23	X24	Y24	Z24	X25	Y25	Z25	X26	Y26	Z26	X27	Y27	Z27	X28	Y28	Z28	X29	Y29	Z29	X30	Y30	Z30	X31	Y31	Z31	X32	Y32	Z32	X33	Y33	Z33	

3376	22.5	2378.46430710605	876.4345155767729	899.3296573362896	1872.157196629281	699.6076327995341	971.0825633598546	1874.858708341291	671.6892675249454	924.0903160786841	1903.710101352794	664.9395164270118	965.1283380560789	2345.790287604889	949.0057909720314	865.0925505083675	1765.343281155039	514.3660002223072	979.4147666489449	1767.559187160918	562.2461029097427	879.2825608696905	2217.863806922442	933.8325277254154	954.5634648007463	1942.624940757407	587.8925179863528	895.6671571741231	1959.734174750148	620.6302738366899	937.172932901755	2019.027106521771	567.5541869041638	881.0563674921165	2036.247975929721	598.7587082147152	921.5510339500871	2264.355260459691	531.2175650180795	844.4671756758828	2198.333167716758	543.1765310929725	872.9178914557225	2276.417461095355	640.4977958543529	833.5665683368326	2213.181231317961	651.7325571529384	859.1931043294977	2365.948323287674	886.5222078144423	1129.606991847359	2455.088842329899	79.14206675450463	1036.35320100432	2268.673841579567	37.13723967926626	1017.131864859958	2291.093064260008	55.39138394217398	1058.878393793339	2281.895335563097	86.94383101091954	1017.908296909703	2315.39854545521	951.0336758552281	1164.992159489832	2478.986346334622	41.96747789949768	991.874863770637	2443.439642349896	36.77422697911241	1097.958018334329	2207.313488604434	932.9319991870359	1057.401680865531	2358.514113257058	152.3063213258516	1081.131532127028	2320.077032104564	167.9562816969535	1050.231739692258	2369.450211281605	233.7211648367121	1103.574489216553	2329.636089891077	246.1838837599265	1069.951305035469	2398.472106013602	575.8918975627402	1158.505958894415	2344.811135315604	550.4777145155997	1115.464588227925	2339.84798288712	667.2981682894904	1172.837473497268	2288.838997101579	644.8979200681371	1132.091908399465	
3377	22.50666666666667	2376.515594330072	869.7579757140636	899.829218283772	1889.84640437958	698.4939530896945	968.6410070393223	1892.085935011066	670.1561713114434	921.9350148149911	1920.93276020028	663.3339562503414	963.0075319158567	2344.288001931151	941.1906811832615	864.9968648721386	1780.441467763871	514.9942548043083	978.8933585035949	1783.249563550026	561.7082666816588	878.2309210736222	2215.658009710646	927.4583295122025	954.4469360744265	1958.846761956292	584.8153078479777	894.0682234474087	1977.006095054732	617.1503194868122	935.4950986802679	2034.67616995065	562.3442011652013	879.2673230155228	2052.892019310388	592.9665209676776	919.8781981449462	2272.984026658706	524.1573390600367	842.9251844288856	2206.651959710683	533.8927880188588	871.2712866718551	2281.63460137946	633.8201776945635	832.7765525953223	2217.965889974717	642.8840444543526	858.1586900910098	2363.779667931702	880.6951951791115	1130.019051361185	2431.216773731218	78.22173631842543	1034.544660762961	2245.131314307247	35.43283226155335	1016.83198036536	2267.601680873319	54.48881028486478	1058.20972468177	2258.278411022582	85.29232569211349	1016.694914447116	2313.859818849287	943.6411443124967	1165.240698012623	2455.442007814805	41.38096803799535	991.0518698418945	2420.012012601455	37.26640959394251	1097.406954661216	2205.130332637774	927.6727351991257	1056.762482693302	2339.408204139954	149.7107268191454	1079.616114353606	2300.724765279422	167.0023556948235	1049.850290118786	2354.1691780338	230.4792741118974	1102.490502633719	2313.861164439959	244.7064141429297	1069.952960412444	2392.201687795887	570.1418755757851	1158.429927353727	2338.210184456181	545.7097172989729	1115.128658602748	2334.809721975213	662.3417138056172	1173.048950950149	2283.613309529533	640.899985074403	1132.003114830943	
3378	22.51333333333334	2374.269204023875	863.5608866830928	900.2639297758334	1906.784438023692	695.9759959155414	966.0596613614171	1908.782402129629	667.2671139796705	919.655298027177	1937.680375271309	660.5526069693631	960.8139113659167	2341.805412623887	934.0123492342865	864.833383164046	1796.058654347264	513.4928515017548	978.3984910923327	1799.188296179461	558.9497613274592	877.1815209839124	2213.217007145919	921.7764916597887	954.4059481108885	1975.260822968342	580.8089203354982	892.4663034590621	1994.211646590921	612.8138351797079	933.8941692973955	2050.654401025106	556.6718519265578	877.6030362800968	2069.602185114175	586.8015960164838	918.330307063196	2282.469290758569	518.0106971481193	841.4453236771113	2215.853984429891	525.2929401850585	869.6220850144276	2287.325263089966	627.9431294084507	832.0211282852915	2223.261238789634	634.6143243262034	857.0843416774898	2361.18725717389	875.4095118794169	1130.473628685319	2407.464963227592	77.82634637460723	1033.196465352727	2221.763384125627	34.3689523397205	1016.577404495028	2244.24371790642	54.10144276034804	1057.659996181047	2234.813947750941	84.26218390929861	1015.683109906709	2311.959830392162	936.7094559686878	1165.440590057936	2431.969512157898	41.44234173890901	990.5916600074975	2396.639106914512	38.0622033524694	1097.072125969474	2202.616545541053	923.1052927704371	1056.053583272801	2319.801856273579	147.8254555641535	1078.340416573082	2281.111589773974	166.6219263981416	1049.490737549827	2338.078091127699	227.8147610882437	1101.527533343939	2297.532098815685	243.6768008316413	1069.84301356542	2384.964910537191	564.8419384229209	1158.320086866436	2330.546907303199	541.5236561835538	1114.82608394986	2329.064047376183	657.9931916911484	1173.216534370395	2277.631952831653	637.6048377090636	1131.914880263296	
3379	22.52	2371.750689607974	858.0027874253299	900.6115238765163	1922.695480838565	692.1481306115644	963.3190424361565	1924.69076083693	663.0845083560374	917.2453732068021	1953.691783773384	656.6999314568544	958.529246186561	2338.361054876591	927.6868589669338	864.5749391760322	1812.00711788976	509.8849677055179	977.9575856479624	1815.181573678345	553.9737880545345	876.1567024544506	2210.587703870783	916.9387325085362	954.3463294091238	1991.662016683608	576.0004233485903	890.866815695729	2011.112758054739	607.7868132644286	932.3823912928081	2066.807013165776	550.7310458377931	876.1054990070602	2086.193109705003	580.5075137129348	916.9348635076441	2292.813375762041	513.0037021853533	840.0912229011398	2225.958095843514	517.5992120893111	868.0348551925907	2293.492803260516	623.0523644480431	831.3308687851884	2229.089999563318	627.1116433483564	855.9962270072942	2358.196447211676	870.8171232752599	1130.989429930294	2383.885229165026	77.75721827939	1032.308641011149	2198.525575200581	33.95613737392867	1016.377122220445	2221.002035010933	54.18873797362779	1057.249350822095	2211.521288025604	83.86033405761114	1014.91493687838	2309.650515983229	930.5249595586689	1165.571629838373	2408.553501230667	41.8851439674777	990.4349964973087	2373.301971055791	38.94097089383632	1096.918345254347	2199.809578802517	919.3448012865651	1055.246799269263	2299.719499794295	146.6108980488055	1077.358723286201	2261.246225214889	166.7756962844936	1049.195396604322	2321.192325938499	225.7262126729622	1100.745208225026	2280.656236501034	243.0901477566062	1069.670960318771	2376.866542867108	560.1034986538817	1158.196075850359	2321.926355200359	537.9826832885211	1114.620412648258	2322.690712468684	654.326653987022	1173.338822133182	2270.970248863295	635.0474304229174	1131.855721063443	
3380	22.52666666666667	2369.000400574457	853.2374025079313	900.8509584571891	1937.323850498842	687.0737792424046	960.4217718006316	1939.575566036573	657.6513941661725	914.7225984860542	1968.71627590752	651.8581251371304	956.1525426282303	2334.057632181591	922.4128042431967	864.2077544725553	1828.134131109401	504.2066255045229	977.5925768267155	1831.072879954464	546.8050228138048	875.1783293527749	2207.826698762472	913.0632911518508	954.1928288502494	2007.835716586481	570.5117316469918	889.2851837816289	2027.465707132405	602.2260699204736	930.9695383246914	2082.954264985284	544.7116278715729	874.812229139837	2102.459368002143	574.3183614906241	915.7165427265585	2303.966506773586	509.3483531135169	838.9275142049951	2236.934252720721	511.0329875685804	866.5792645471244	2300.107975415504	619.3192968656953	830.7322362801858	2235.445610854971	620.5618127776745	854.924287243228	2354.868793298041	867.0298161057865	1131.568471670099	2360.485783528814	77.85748367416356	1031.856740145264	2175.350824856958	34.17614232757939	1016.242036640466	2197.83262488885	54.70096610901911	1056.994094667539	2188.380445186823	84.06827397287408	1014.419530988311	2306.920596978808	925.3376472253489	1165.617109731434	2385.153360203735	42.48769950737199	990.5144653067932	2349.962873302959	39.73813624245816	1096.907712819841	2196.773870083086	916.4612802614246	1054.340523744377	2279.191458583117	146.0057066631856	1076.705441247659	2241.122734951774	167.4102663394003	1049.010428689484	2303.549506347577	224.1897495407039	1100.193743492365	2263.241689951211	242.9270345601638	1069.503105122479	2368.00769738953	555.9957664419314	1158.080625899616	2312.460376115009	535.1206091807391	1114.557261517813	2315.775985365619	651.3791725071662	1173.413638769093	2263.71497042948	633.239796571208	1131.837900199636	
3381	22.53333333333333	2366.074435906344	849.4041856812909	900.9678765832516	1950.456199779811	680.7809013253825	957.3944689613061	1953.245228346173	650.9905718498944	912.1264244662763	1982.534459919127	646.0798417094001	953.7035419067569	2329.075260962496	918.353422031167	863.7326936631766	1844.328565673471	496.5079885351453	977.3185389765366	1846.755906180157	537.4946319565952	874.2659335366137	2204.996628283162	910.2254796437213	953.902301233675	2023.572487771418	564.4487768086437	887.7482643101368	2043.036782211028	596.265872542294	929.6622683807612	2098.901427721448	538.7823570561336	873.7531923984075	2118.186191148282	568.4382658832852	914.693544771759	2315.826717658923	507.2267624025485	838.0161311723313	2248.700533084309	505.8000553285689	865.3228968286976	2307.110196765073	616.8887902716234	830.2469908497457	2242.290686042025	615.136589686417	853.8997001072199	2351.298518809394	864.1136479367746	1132.196522538678	2337.247328285614	78.01839796094873	1031.796206735545	2152.169120383232	34.99564748396661	1016.179132942991	2174.682527225611	55.59194809302836	1056.901239291128	2165.351770495399	84.85392568315521	1014.207694517952	2303.802957714442	921.3338851244424	1165.566288128888	2361.718185382311	43.08565189961485	990.7622412092539	2326.577866542534	40.35046547435746	1097.001232008112	2193.596271168733	914.4766091786563	1053.35945486686	2258.257691804889	145.943114376182	1076.390042869195	2220.732143218699	168.4710914265083	1048.974328264676	2285.207812181764	223.1731218593907	1099.905258011498	2245.302703059808	243.1643935567447	1069.406682712823	2358.477134140305	552.5520280087588	1157.993420972211	2302.257588841102	532.9527874814589	1114.656347356035	2308.405638392373	649.1590548287996	1173.435674870587	2255.958012853078	632.1825769467097	1131.853973546264	
